# xmcd
#
# Track frame offsets:
#	150
#	13570
#	28460
#	41900
#	56480
#	68985
#	82965
#	92183
#	102255
#	116910
#	131465
#	143200
#	153380
#	168500
#	181765
#	197720
#	210600
#	221688
#	232695
#	243508
#	255898
#	268053
#
# Disc length: 3782 seconds
#
# Revision: 1
# Processed by: cddbd v1.5.2PL0 Copyright (c) Steve Scherf et al.
# Submitted via: EasyCDDAExtractor 8.2.3.1
#
DISCID=380ec416
DTITLE=Rayburn Anthony - Country Music Fan
DYEAR=1993
DGENRE=Country
TTITLE0=Country Music Fan
TTITLE1=A Way To Survive
TTITLE2=So Afraid Of Losing You Again
TTITLE3=You And Me And Tennesse
TTITLE4=A Man Has To Come Down Somtime
TTITLE5=I Could Never Ask For More
TTITLE6=We're Calling It Home Again
TTITLE7=A Whole Lot Less To Her
TTITLE8=I Don't Belive I'll Fall In Love Today
TTITLE9=I May Never Get Too Old For Blue Jeans
TTITLE10=It'll Be Twice As Good This Time
TTITLE11=Building Burned Bridges
TTITLE12=It Could Have Been
TTITLE13=Home Entertaiment Center
TTITLE14=I'll Love Forever (Every Saturday Night)
TTITLE15=Love Needs Time
TTITLE16=The Feeling's Still Here
TTITLE17=Countrytime
TTITLE18=Same Old Blues
TTITLE19=I Should Have Read The Warning On The Label
TTITLE20=Let's Get It Over With And Say Goodbye
TTITLE21=Baby's Learning How To Walk
EXTD=
EXTT0=
EXTT1=
EXTT2=
EXTT3=
EXTT4=
EXTT5=
EXTT6=
EXTT7=
EXTT8=
EXTT9=
EXTT10=
EXTT11=
EXTT12=
EXTT13=
EXTT14=
EXTT15=
EXTT16=
EXTT17=
EXTT18=
EXTT19=
EXTT20=
EXTT21=
PLAYORDER=
